<?xml version="1.0" standalone="no"?>
<!DOCTYPE svg PUBLIC "-//W3C//DTD SVG 20010904//EN"
 "http://www.w3.org/TR/2001/REC-SVG-20010904/DTD/svg10.dtd">
<svg version="1.0" xmlns="http://www.w3.org/2000/svg"
 width="230.000000pt" height="230.000000pt" viewBox="0 0 230.000000 230.000000"
 preserveAspectRatio="xMidYMid meet">
<metadata>
Created by potrace 1.11, written by Peter Selinger 2001-2013
</metadata>
<g transform="translate(0.000000,230.000000) scale(0.100000,-0.100000)"
fill="#000000" stroke="none">
<path d="M849 2245 c-2 -2 -40 -6 -84 -10 -43 -3 -93 -8 -110 -10 -16 -2 -52
-7 -80 -10 -72 -9 -109 -14 -210 -32 -49 -8 -103 -17 -120 -20 -52 -9 -95 -31
-95 -50 -2 -69 2 -365 5 -393 2 -19 5 -52 6 -73 2 -21 7 -41 11 -43 5 -3 43 2
86 10 82 17 242 41 332 51 30 4 71 8 90 11 223 25 800 25 961 -1 13 -2 51 -6
84 -10 33 -3 69 -8 80 -10 11 -2 41 -7 66 -10 25 -3 95 -14 154 -25 60 -11
112 -17 116 -13 10 10 22 215 21 353 0 181 2 169 -34 184 -44 18 -329 66 -491
82 -34 3 -75 8 -92 11 -35 6 -691 13 -696 8z m156 -109 c22 -4 64 -14 93 -22
49 -15 59 -15 111 0 87 24 145 30 291 31 132 0 136 -1 195 -32 l60 -31 82
-182 81 -182 -51 6 c-29 4 -79 11 -112 16 -256 40 -725 47 -1070 15 -49 -4
-159 -17 -177 -20 -73 -15 -108 -16 -108 -6 0 6 35 88 78 182 l77 171 50 26
c28 14 64 29 80 33 34 8 259 4 320 -5z"/>
<path d="M656 2061 c-37 -16 -44 -26 -92 -135 l-53 -118 47 7 c118 15 239 21
390 18 173 -4 202 5 108 32 -113 33 -166 40 -299 40 -64 0 -117 3 -117 7 0 4
13 43 30 87 16 45 28 81 27 80 -1 0 -20 -8 -41 -18z"/>
<path d="M1610 2077 c0 -2 14 -40 30 -85 17 -46 30 -84 30 -85 0 -1 -48 -2
-107 -1 -60 1 -140 -4 -179 -11 -93 -17 -184 -43 -184 -54 0 -5 100 -9 223 -9
122 0 235 -2 251 -5 66 -14 116 -19 116 -12 0 3 -21 55 -47 115 -43 101 -49
109 -90 129 -23 11 -43 19 -43 18z"/>
<path d="M1017 1603 c-1 0 -63 -4 -137 -8 -74 -3 -146 -8 -160 -10 -14 -2 -55
-6 -91 -10 -36 -3 -76 -7 -90 -10 -13 -2 -42 -6 -64 -10 -22 -3 -65 -10 -95
-15 -30 -5 -71 -12 -90 -15 -80 -13 -100 -18 -105 -25 -7 -11 21 -143 52 -255
116 -407 352 -766 667 -1009 87 -67 197 -138 204 -131 3 3 6 1441 3 1491 -1 8
-86 15 -94 7z m-192 -178 c245 -83 310 -399 118 -575 -177 -162 -452 -102
-548 120 -29 64 -27 208 2 270 79 165 257 242 428 185z"/>
<path d="M596 1370 c-21 -11 -55 -32 -74 -47 l-37 -27 40 -12 40 -11 24 41
c13 23 31 49 39 59 19 21 16 21 -32 -3z"/>
<path d="M823 1333 c41 -61 43 -63 77 -50 24 9 26 13 17 28 -12 19 -96 69
-116 69 -6 0 4 -21 22 -47z"/>
<path d="M652 1315 l-33 -50 31 -3 c18 -2 34 -1 37 1 2 3 3 27 1 53 l-3 49
-33 -50z"/>
<path d="M738 1338 c-2 -13 -1 -35 1 -50 3 -23 8 -28 32 -28 16 0 29 3 29 6 0
9 -22 47 -41 72 l-18 23 -3 -23z"/>
<path d="M447 1223 c-8 -15 -18 -42 -21 -60 -6 -28 -4 -32 16 -35 13 -2 37 -1
55 1 27 2 33 8 38 35 4 17 9 38 11 47 3 12 -4 18 -23 22 -16 3 -36 9 -45 12
-12 5 -21 -2 -31 -22z"/>
<path d="M912 1237 c-32 -10 -33 -11 -26 -56 4 -25 7 -47 8 -48 2 -2 51 -5 83
-4 31 1 31 1 22 39 -13 50 -30 82 -43 81 -6 -1 -26 -6 -44 -12z"/>
<path d="M596 1200 c-18 -69 -19 -68 29 -72 61 -4 65 -2 65 42 0 38 0 38 -45
42 -34 2 -46 -1 -49 -12z"/>
<path d="M773 1212 c-26 -3 -33 -8 -34 -25 0 -12 -2 -30 -4 -39 -3 -14 4 -18
33 -19 40 -1 65 1 71 6 8 8 -10 73 -22 77 -6 2 -27 2 -44 0z"/>
<path d="M425 1042 c5 -32 31 -92 40 -92 3 0 23 7 45 16 26 10 39 22 36 30 -3
7 -8 28 -11 47 -7 34 -7 34 -61 33 l-54 -1 5 -33z"/>
<path d="M585 1070 c-2 -3 0 -21 4 -40 7 -37 29 -48 77 -36 20 5 24 13 24 41
0 19 -3 36 -7 36 -25 5 -95 4 -98 -1z"/>
<path d="M738 1055 c-8 -43 5 -61 49 -64 41 -2 42 -2 49 34 3 20 3 39 -1 43
-4 4 -26 7 -50 7 -36 0 -44 -3 -47 -20z"/>
<path d="M895 1065 c-2 -5 -6 -27 -10 -48 -5 -32 -3 -38 17 -46 66 -24 65 -24
82 21 29 80 28 83 -33 83 -29 1 -55 -4 -56 -10z"/>
<path d="M637 941 c-16 -6 -15 -10 10 -49 15 -23 31 -42 35 -42 4 0 7 20 6 44
-1 46 -15 59 -51 47z"/>
<path d="M747 935 c-8 -7 -11 -29 -9 -55 l4 -42 29 44 c16 23 29 46 29 49 0
13 -41 17 -53 4z"/>
<path d="M530 921 c-39 -11 -30 -33 30 -68 68 -41 77 -41 50 0 -11 17 -26 42
-32 55 -6 12 -14 22 -17 21 -3 -1 -17 -4 -31 -8z"/>
<path d="M827 875 c-20 -31 -30 -55 -23 -55 15 0 97 52 114 72 11 14 8 17 -19
27 -18 6 -33 11 -34 11 -1 0 -18 -25 -38 -55z"/>
<path d="M1202 1590 c-6 -13 -7 -53 -3 -161 1 -22 18 -37 93 -87 l93 -62 0
-214 0 -215 -25 16 c-14 9 -54 36 -89 59 -36 24 -67 41 -69 39 -6 -6 -9 -865
-3 -865 8 0 97 54 143 88 l47 33 0 306 c0 168 1 307 3 309 2 2 43 -23 91 -54
l87 -57 0 -167 c0 -93 3 -168 8 -168 8 0 77 76 145 162 l38 46 -23 17 c-13 9
-54 37 -93 63 l-70 47 -3 213 -2 213 22 -12 c13 -7 55 -34 94 -60 l71 -47 0
-206 c0 -114 3 -209 6 -212 18 -18 182 279 252 455 39 101 101 330 107 395 3
44 5 44 -126 64 l-53 9 0 -304 c0 -167 -3 -306 -6 -309 -3 -3 -44 20 -91 52
l-86 57 0 269 0 268 -27 1 c-27 1 -61 4 -113 9 -52 5 -50 13 -50 -210 l0 -211
-90 61 -90 61 0 159 0 160 -37 1 c-21 0 -62 2 -91 3 -40 1 -55 -3 -60 -14z"/>
</g>
</svg>
